<svg width="1200" height="675" viewBox="0 0 1200 675" fill="none" xmlns="http://www.w3.org/2000/svg">
<rect width="1200" height="675" fill="white"/>
<path d="M361.943 280.646L317.627 176.858C315.757 173.047 309.938 173.047 308.068 176.858L256.5 277.593L204.932 176.858C203.062 173.047 197.243 173.047 195.373 176.858L151.057 280.646H151.057C133.604 280.646 119.456 294.794 119.456 312.246V409.913C119.456 427.366 133.604 441.514 151.057 441.514H361.943C379.396 441.514 393.544 427.366 393.544 409.913V312.246C393.544 294.794 379.396 280.646 361.943 280.646Z" fill="#EA7914" stroke="black" stroke-width="10" stroke-miterlimit="10" stroke-linejoin="round"/>
<path d="M314.341 295.834C287.8 295.834 265.178 312.61 256.5 336.137C247.822 312.61 225.2 295.834 198.659 295.834C164.621 295.834 137.027 323.427 137.027 357.466C137.027 391.504 164.621 419.098 198.659 419.098C225.2 419.098 247.822 402.321 256.5 378.794C265.178 402.321 287.8 419.098 314.341 419.098C348.38 419.098 375.973 391.504 375.973 357.466C375.973 323.427 348.38 295.834 314.341 295.834Z" fill="white"/>
<path fill-rule="evenodd" clip-rule="evenodd" d="M133.118 357.466C133.118 321.268 162.462 291.925 198.659 291.925C223.709 291.925 245.469 305.977 256.5 326.619C267.531 305.977 289.291 291.925 314.341 291.925C350.538 291.925 379.882 321.268 379.882 357.466C379.882 393.663 350.538 423.007 314.341 423.007C289.291 423.007 267.531 408.954 256.5 388.312C245.469 408.954 223.709 423.007 198.659 423.007C162.462 423.007 133.118 393.663 133.118 357.466ZM198.659 299.742C166.779 299.742 140.936 325.586 140.936 357.466C140.936 389.345 166.779 415.189 198.659 415.189C223.51 415.189 244.702 399.482 252.833 377.441L256.5 367.499L260.167 377.441C268.298 399.482 289.49 415.189 314.341 415.189C346.221 415.189 372.064 389.345 372.064 357.466C372.064 325.586 346.221 299.742 314.341 299.742C289.49 299.742 268.298 315.449 260.167 337.49L256.5 347.432L252.833 337.49C244.702 315.449 223.51 299.742 198.659 299.742Z" fill="#231815"/>
<path d="M222.341 382.249C236.058 382.249 247.178 371.129 247.178 357.412C247.178 343.695 236.058 332.575 222.341 332.575C208.624 332.575 197.504 343.695 197.504 357.412C197.504 371.129 208.624 382.249 222.341 382.249Z" fill="#40220F"/>
<path fill-rule="evenodd" clip-rule="evenodd" d="M222.341 336.484C210.782 336.484 201.412 345.854 201.412 357.412C201.412 368.971 210.782 378.341 222.341 378.341C233.899 378.341 243.269 368.971 243.269 357.412C243.269 345.854 233.899 336.484 222.341 336.484ZM193.595 357.412C193.595 341.536 206.465 328.666 222.341 328.666C238.217 328.666 251.087 341.536 251.087 357.412C251.087 373.288 238.217 386.158 222.341 386.158C206.465 386.158 193.595 373.288 193.595 357.412Z" fill="#231815"/>
<path d="M290.659 382.249C304.376 382.249 315.496 371.129 315.496 357.412C315.496 343.695 304.376 332.575 290.659 332.575C276.942 332.575 265.822 343.695 265.822 357.412C265.822 371.129 276.942 382.249 290.659 382.249Z" fill="#40220F"/>
<path fill-rule="evenodd" clip-rule="evenodd" d="M290.659 336.484C279.101 336.484 269.731 345.854 269.731 357.412C269.731 368.971 279.101 378.341 290.659 378.341C302.218 378.341 311.588 368.971 311.588 357.412C311.588 345.854 302.218 336.484 290.659 336.484ZM261.913 357.412C261.913 341.536 274.783 328.666 290.659 328.666C306.535 328.666 319.405 341.536 319.405 357.412C319.405 373.288 306.535 386.158 290.659 386.158C274.783 386.158 261.913 373.288 261.913 357.412Z" fill="#231815"/>
<path d="M190.267 452.073L180.432 475.925L170.663 452.073H178.432L180.498 459.115L182.779 452.073H190.267Z" fill="black"/>
<path d="M197.457 458.156V474.636H191.275V458.156H197.457ZM194.383 450.8C195.22 450.8 195.945 451.095 196.556 451.685C197.168 452.274 197.474 452.971 197.474 453.776C197.474 454.635 197.184 455.34 196.606 455.891C196.027 456.442 195.286 456.718 194.383 456.718C193.479 456.718 192.738 456.442 192.159 455.891C191.581 455.34 191.292 454.635 191.292 453.776C191.292 452.971 191.597 452.274 192.209 451.685C192.821 451.095 193.545 450.8 194.383 450.8Z" fill="black"/>
<path d="M210.135 457.991V464.602C209.705 464.36 209.314 464.239 208.961 464.239C207.837 464.239 207.276 465.098 207.276 466.817V474.636H201.094V465.627C201.094 463.247 201.744 461.349 203.044 459.933C204.344 458.517 206.08 457.809 208.251 457.809C208.736 457.809 209.364 457.87 210.135 457.991Z" fill="black"/>
<path d="M217.458 452.073V458.387H220.235V464.917H217.458C217.458 466.228 217.664 467.131 218.078 467.627C218.491 468.123 219.248 468.371 220.35 468.371V474.867C220.031 474.878 219.794 474.884 219.64 474.884C218.24 474.884 216.92 474.559 215.681 473.908C214.441 473.258 213.446 472.377 212.697 471.264C211.749 469.842 211.276 467.958 211.276 465.611V452.073H217.458Z" fill="black"/>
<path d="M223.276 458.387H229.458V467.693C229.458 468.63 229.849 469.098 230.632 469.098C231.403 469.098 231.789 468.63 231.789 467.693V458.387H237.971V467.578C237.971 469.716 237.26 471.52 235.838 472.991C234.417 474.462 232.676 475.198 230.615 475.198C228.268 475.198 226.378 474.344 224.945 472.636C223.832 471.303 223.276 469.451 223.276 467.082V458.387Z" fill="black"/>
<path d="M250.731 468.454V474.851C250.224 474.939 249.762 474.983 249.343 474.983C246.864 474.983 244.797 474.168 243.144 472.537C241.491 470.906 240.665 468.861 240.665 466.404C240.665 464.013 241.5 461.985 243.169 460.321C244.839 458.658 246.869 457.825 249.26 457.825C251.927 457.825 254.029 458.605 255.566 460.164C257.103 461.724 257.872 463.853 257.872 466.553V474.636H251.69V466.999C251.69 466.129 251.478 465.435 251.054 464.917C250.629 464.399 250.059 464.14 249.343 464.14C248.693 464.14 248.131 464.377 247.657 464.85C247.183 465.324 246.946 465.886 246.946 466.536C246.946 467.22 247.161 467.782 247.591 468.222C248.021 468.663 248.566 468.883 249.227 468.883C249.767 468.883 250.269 468.74 250.731 468.454Z" fill="black"/>
<path d="M267.658 452.073V474.636H261.476V452.073H267.658Z" fill="black"/>
<path d="M279.741 452.073H286.452V465.478C286.452 466.526 286.62 467.222 286.956 467.569C287.292 467.916 287.956 468.09 288.948 468.09H289.295V474.636H287.509C285.063 474.636 283.156 473.922 281.79 472.495C280.424 471.068 279.741 469.088 279.741 466.553V452.073Z" fill="black"/>
<path d="M297.279 458.156V474.636H291.096V458.156H297.279ZM294.204 450.8C295.041 450.8 295.766 451.095 296.378 451.685C296.989 452.274 297.295 452.971 297.295 453.776C297.295 454.635 297.006 455.34 296.427 455.891C295.849 456.442 295.108 456.718 294.204 456.718C293.3 456.718 292.559 456.442 291.981 455.891C291.402 455.34 291.113 454.635 291.113 453.776C291.113 452.971 291.419 452.274 292.03 451.685C292.642 451.095 293.366 450.8 294.204 450.8Z" fill="black"/>
<path d="M309.857 461.809V468.289H307.097V474.636H300.915V460.635C300.915 459.06 301.185 457.715 301.725 456.602C302.408 455.181 303.447 454.021 304.841 453.123C306.235 452.225 307.686 451.776 309.196 451.776L309.857 451.792V458.272C309.714 458.261 309.609 458.255 309.543 458.255C308.761 458.255 308.157 458.514 307.733 459.032C307.309 459.55 307.097 460.288 307.097 461.247V461.809H309.857Z" fill="black"/>
<path d="M328.767 467.396H319.395C319.251 466.922 319.18 466.487 319.18 466.09C319.18 465.539 319.279 464.999 319.478 464.47H322.618C322.397 463.247 321.709 462.636 320.552 462.636C319.78 462.636 319.152 462.964 318.667 463.619C318.182 464.275 317.94 465.115 317.94 466.14C317.94 467.209 318.174 468.074 318.643 468.735C319.111 469.396 319.725 469.726 320.486 469.726C321.103 469.726 321.698 469.418 322.271 468.801L325.792 473.032C324.15 474.322 322.326 474.966 320.32 474.966C317.874 474.966 315.819 474.145 314.155 472.503C312.491 470.862 311.659 468.829 311.659 466.404C311.659 463.991 312.499 461.952 314.18 460.288C315.86 458.625 317.924 457.792 320.37 457.792C322.761 457.792 324.769 458.605 326.395 460.23C328.02 461.856 328.833 463.858 328.833 466.239C328.833 466.481 328.811 466.867 328.767 467.396Z" fill="black"/>
<path d="M335.908 467.23C336.987 467.23 337.916 467.622 338.693 468.404C339.47 469.187 339.858 470.118 339.858 471.198C339.858 472.278 339.472 473.195 338.701 473.95C337.93 474.704 336.999 475.082 335.908 475.082C334.773 475.082 333.839 474.715 333.106 473.983C332.373 473.25 332.007 472.316 332.007 471.181C332.007 470.079 332.387 469.145 333.147 468.379C333.908 467.614 334.827 467.23 335.908 467.23Z" fill="black"/>
<path d="M461.844 324H477.094V368.25C477.073 372.396 476.083 376.021 474.125 379.125C472.167 382.208 469.458 384.604 466 386.312C462.563 388.021 458.583 388.875 454.063 388.875C450.063 388.875 446.427 388.177 443.156 386.781C439.906 385.385 437.312 383.219 435.375 380.281C433.458 377.344 432.51 373.583 432.531 369H447.938C448 370.646 448.313 372.052 448.875 373.219C449.458 374.365 450.26 375.229 451.281 375.812C452.302 376.396 453.521 376.687 454.938 376.687C456.417 376.687 457.667 376.375 458.688 375.75C459.708 375.104 460.479 374.156 461 372.906C461.542 371.656 461.823 370.104 461.844 368.25V324ZM509.211 388.906C504.169 388.906 499.836 387.875 496.211 385.812C492.607 383.729 489.826 380.833 487.867 377.125C485.93 373.396 484.961 369.073 484.961 364.156C484.961 359.219 485.93 354.896 487.867 351.187C489.826 347.458 492.607 344.562 496.211 342.5C499.836 340.417 504.169 339.375 509.211 339.375C514.253 339.375 518.576 340.417 522.18 342.5C525.805 344.562 528.586 347.458 530.523 351.187C532.482 354.896 533.461 359.219 533.461 364.156C533.461 369.073 532.482 373.396 530.523 377.125C528.586 380.833 525.805 383.729 522.18 385.812C518.576 387.875 514.253 388.906 509.211 388.906ZM509.305 377.375C511.138 377.375 512.69 376.812 513.961 375.687C515.232 374.562 516.201 373 516.867 371C517.555 369 517.898 366.687 517.898 364.062C517.898 361.396 517.555 359.062 516.867 357.062C516.201 355.063 515.232 353.5 513.961 352.375C512.69 351.25 511.138 350.687 509.305 350.687C507.409 350.687 505.805 351.25 504.492 352.375C503.201 353.5 502.211 355.063 501.523 357.062C500.857 359.062 500.523 361.396 500.523 364.062C500.523 366.687 500.857 369 501.523 371C502.211 373 503.201 374.562 504.492 375.687C505.805 376.812 507.409 377.375 509.305 377.375ZM541.289 388V340H556.57V388H541.289ZM548.945 334.406C546.799 334.406 544.956 333.698 543.414 332.281C541.872 330.844 541.102 329.115 541.102 327.094C541.102 325.094 541.872 323.385 543.414 321.969C544.956 320.531 546.799 319.812 548.945 319.812C551.112 319.812 552.956 320.531 554.477 321.969C556.018 323.385 556.789 325.094 556.789 327.094C556.789 329.115 556.018 330.844 554.477 332.281C552.956 333.698 551.112 334.406 548.945 334.406ZM581.578 360.625V388H566.297V340H580.828V348.812H581.359C582.422 345.875 584.234 343.573 586.797 341.906C589.359 340.219 592.411 339.375 595.953 339.375C599.328 339.375 602.255 340.135 604.734 341.656C607.234 343.156 609.172 345.26 610.547 347.969C611.943 350.656 612.63 353.802 612.609 357.406V388H597.328V360.406C597.349 357.74 596.672 355.656 595.297 354.156C593.943 352.656 592.057 351.906 589.641 351.906C588.036 351.906 586.62 352.26 585.391 352.969C584.182 353.656 583.245 354.646 582.578 355.937C581.932 357.229 581.599 358.792 581.578 360.625ZM655.508 324L669.82 370.875H670.352L684.664 324H701.977L680.383 388H659.789L638.195 324H655.508ZM708.867 388V340H724.148V388H708.867ZM716.523 334.406C714.378 334.406 712.534 333.698 710.992 332.281C709.451 330.844 708.68 329.115 708.68 327.094C708.68 325.094 709.451 323.385 710.992 321.969C712.534 320.531 714.378 319.812 716.523 319.812C718.69 319.812 720.534 320.531 722.055 321.969C723.596 323.385 724.367 325.094 724.367 327.094C724.367 329.115 723.596 330.844 722.055 332.281C720.534 333.698 718.69 334.406 716.523 334.406ZM733.875 388V340H748.719V348.75H749.219C750.094 345.583 751.521 343.229 753.5 341.687C755.479 340.125 757.781 339.344 760.406 339.344C761.115 339.344 761.844 339.396 762.594 339.5C763.344 339.583 764.042 339.719 764.687 339.906V353.187C763.958 352.937 763 352.74 761.813 352.594C760.646 352.448 759.604 352.375 758.688 352.375C756.875 352.375 755.24 352.781 753.781 353.594C752.344 354.385 751.208 355.5 750.375 356.937C749.563 358.354 749.156 360.021 749.156 361.937V388H733.875ZM800.242 340V351.25H769.961V340H800.242ZM776.305 328.5H791.586V372.906C791.586 373.844 791.732 374.604 792.023 375.187C792.336 375.75 792.784 376.156 793.367 376.406C793.951 376.635 794.648 376.75 795.461 376.75C796.044 376.75 796.659 376.698 797.305 376.594C797.971 376.469 798.471 376.365 798.805 376.281L801.117 387.312C800.388 387.521 799.357 387.781 798.023 388.094C796.711 388.406 795.138 388.604 793.305 388.688C789.721 388.854 786.648 388.437 784.086 387.437C781.544 386.417 779.596 384.833 778.242 382.687C776.909 380.542 776.263 377.844 776.305 374.594V328.5ZM839.008 367.281V340H854.258V388H839.695V379.062H839.195C838.133 382 836.32 384.333 833.758 386.062C831.216 387.771 828.143 388.625 824.539 388.625C821.268 388.625 818.393 387.875 815.914 386.375C813.435 384.875 811.508 382.781 810.133 380.094C808.758 377.385 808.06 374.219 808.039 370.594V340H823.32V367.594C823.341 370.198 824.029 372.25 825.383 373.75C826.737 375.25 828.581 376 830.914 376C832.435 376 833.799 375.667 835.008 375C836.237 374.312 837.206 373.323 837.914 372.031C838.643 370.719 839.008 369.135 839.008 367.281ZM877.516 388.813C874.453 388.813 871.734 388.302 869.359 387.281C867.005 386.24 865.141 384.677 863.766 382.594C862.411 380.49 861.734 377.854 861.734 374.688C861.734 372.021 862.203 369.771 863.141 367.937C864.078 366.104 865.37 364.615 867.016 363.469C868.661 362.323 870.557 361.458 872.703 360.875C874.849 360.271 877.141 359.865 879.578 359.656C882.307 359.406 884.505 359.146 886.172 358.875C887.839 358.583 889.047 358.177 889.797 357.656C890.568 357.115 890.953 356.354 890.953 355.375V355.219C890.953 353.615 890.401 352.375 889.297 351.5C888.193 350.625 886.703 350.188 884.828 350.188C882.807 350.188 881.182 350.625 879.953 351.5C878.724 352.375 877.943 353.583 877.609 355.125L863.516 354.625C863.932 351.708 865.005 349.104 866.734 346.812C868.484 344.5 870.88 342.688 873.922 341.375C876.984 340.042 880.661 339.375 884.953 339.375C888.016 339.375 890.839 339.74 893.422 340.469C896.005 341.177 898.255 342.219 900.172 343.594C902.089 344.948 903.568 346.615 904.609 348.594C905.672 350.573 906.203 352.833 906.203 355.375V388H891.828V381.312H891.453C890.599 382.937 889.505 384.312 888.172 385.437C886.859 386.563 885.307 387.406 883.516 387.969C881.745 388.531 879.745 388.813 877.516 388.813ZM882.234 378.812C883.88 378.812 885.359 378.479 886.672 377.812C888.005 377.146 889.068 376.229 889.859 375.062C890.651 373.875 891.047 372.5 891.047 370.937V366.375C890.609 366.604 890.078 366.812 889.453 367C888.849 367.187 888.182 367.365 887.453 367.531C886.724 367.698 885.974 367.844 885.203 367.969C884.432 368.094 883.693 368.208 882.984 368.312C881.547 368.542 880.318 368.896 879.297 369.375C878.297 369.854 877.526 370.479 876.984 371.25C876.464 372 876.203 372.896 876.203 373.937C876.203 375.521 876.766 376.729 877.891 377.562C879.036 378.396 880.484 378.812 882.234 378.812ZM930.828 324V388H915.547V324H930.828ZM959.461 388V324H974.93V375.437H1001.55V388H959.461ZM1009.56 388V340H1024.84V388H1009.56ZM1017.22 334.406C1015.07 334.406 1013.23 333.698 1011.69 332.281C1010.15 330.844 1009.38 329.115 1009.38 327.094C1009.38 325.094 1010.15 323.385 1011.69 321.969C1013.23 320.531 1015.07 319.812 1017.22 319.812C1019.39 319.812 1021.23 320.531 1022.75 321.969C1024.29 323.385 1025.06 325.094 1025.06 327.094C1025.06 329.115 1024.29 330.844 1022.75 332.281C1021.23 333.698 1019.39 334.406 1017.22 334.406ZM1061.85 340V351.25H1030.98V340H1061.85ZM1037.41 388V337.562C1037.41 333.854 1038.11 330.781 1039.51 328.344C1040.9 325.885 1042.84 324.052 1045.32 322.844C1047.8 321.615 1050.66 321 1053.91 321C1056.04 321 1058.04 321.167 1059.91 321.5C1061.81 321.812 1063.22 322.094 1064.13 322.344L1061.7 333.531C1061.13 333.344 1060.45 333.187 1059.63 333.062C1058.84 332.937 1058.09 332.875 1057.38 332.875C1055.59 332.875 1054.36 333.271 1053.7 334.063C1053.03 334.854 1052.7 335.938 1052.7 337.313V388H1037.41ZM1090.09 388.906C1085.07 388.906 1080.74 387.917 1077.09 385.938C1073.47 383.937 1070.68 381.094 1068.72 377.406C1066.78 373.698 1065.81 369.292 1065.81 364.187C1065.81 359.229 1066.79 354.896 1068.75 351.187C1070.71 347.458 1073.47 344.562 1077.03 342.5C1080.59 340.417 1084.79 339.375 1089.62 339.375C1093.04 339.375 1096.17 339.906 1099 340.969C1101.83 342.031 1104.28 343.604 1106.34 345.687C1108.41 347.771 1110.01 350.344 1111.16 353.406C1112.3 356.448 1112.88 359.937 1112.88 363.875V367.687H1071.16V358.812H1098.66C1098.64 357.187 1098.25 355.74 1097.5 354.469C1096.75 353.198 1095.72 352.208 1094.41 351.5C1093.11 350.771 1091.63 350.406 1089.94 350.406C1088.23 350.406 1086.7 350.792 1085.34 351.562C1083.99 352.313 1082.92 353.344 1082.13 354.656C1081.33 355.948 1080.92 357.417 1080.88 359.062V368.094C1080.88 370.052 1081.26 371.771 1082.03 373.25C1082.8 374.708 1083.9 375.844 1085.31 376.656C1086.73 377.469 1088.42 377.875 1090.38 377.875C1091.73 377.875 1092.96 377.687 1094.06 377.312C1095.17 376.938 1096.11 376.385 1096.91 375.656C1097.7 374.927 1098.29 374.031 1098.69 372.969L1112.72 373.375C1112.14 376.521 1110.85 379.26 1108.88 381.594C1106.92 383.906 1104.34 385.708 1101.16 387C1097.97 388.271 1094.28 388.906 1090.09 388.906Z" fill="black"/>
</svg>
